HIERARCHY
ROOT Hips
{
	OFFSET 0.000000 0.000000 0.000000
	CHANNELS 6 Xposition Yposition Zposition Zrotation Yrotation Xrotation 
	JOINT LHipJoint
	{
		OFFSET 0.000000 0.000000 0.000000
		CHANNELS 3 Zrotation Yrotation Xrotation
		JOINT LeftUpLeg
		{
			OFFSET 1.363060 -1.794630 0.839290
			CHANNELS 3 Zrotation Yrotation Xrotation
			JOINT LeftLeg
			{
				OFFSET 2.448110 -6.726130 0.000000
				CHANNELS 3 Zrotation Yrotation Xrotation
				JOINT LeftFoot
				{
					OFFSET 2.562200 -7.039590 0.000000
					CHANNELS 3 Zrotation Yrotation Xrotation
					JOINT LeftToeBase
					{
						OFFSET 0.157640 -0.433110 2.322550
						CHANNELS 3 Zrotation Yrotation Xrotation
						End Site
						{
							OFFSET 0.000000 0.000000 0.000000
						}
					}
				}
			}
		}
	}
	JOINT RHipJoint
	{
		OFFSET 0.000000 0.000000 0.000000
		CHANNELS 3 Zrotation Yrotation Xrotation
		JOINT RightUpLeg
		{
			OFFSET -1.305520 -1.794630 0.839290
			CHANNELS 3 Zrotation Yrotation Xrotation
			JOINT RightLeg
			{
				OFFSET -2.542530 -6.985550 0.000000
				CHANNELS 3 Zrotation Yrotation Xrotation
				JOINT RightFoot
				{
					OFFSET -2.568260 -7.056230 0.000000
					CHANNELS 3 Zrotation Yrotation Xrotation
					JOINT RightToeBase
					{
						OFFSET -0.164730 -0.452590 2.363150
						CHANNELS 3 Zrotation Yrotation Xrotation
						End Site
						{
							OFFSET 0.000000 0.000000 0.000000
						}
					}
				}
			}
		}
	}
	JOINT LowerBack
	{
		OFFSET 0.000000 0.000000 0.000000
		CHANNELS 3 Zrotation Yrotation Xrotation
		JOINT Spine
		{
			OFFSET 0.028270 2.035590 -0.193380
			CHANNELS 3 Zrotation Yrotation Xrotation
			JOINT Spine1
			{
				OFFSET 0.056720 2.048850 -0.042750
				CHANNELS 3 Zrotation Yrotation Xrotation
				JOINT Neck
				{
					OFFSET 0.000000 0.000000 0.000000
					CHANNELS 3 Zrotation Yrotation Xrotation
					JOINT Neck1
					{
						OFFSET -0.054170 1.746240 0.172020
						CHANNELS 3 Zrotation Yrotation Xrotation
						JOINT Head
						{
							OFFSET 0.104070 1.761360 -0.123970
							CHANNELS 3 Zrotation Yrotation Xrotation
							End Site
							{
								OFFSET 0.000000 0.000000 0.000000
							}
						}
					}
				}
				JOINT LeftShoulder
				{
					OFFSET 0.000000 0.000000 0.000000
					CHANNELS 3 Zrotation Yrotation Xrotation
					JOINT LeftArm
					{
						OFFSET 3.362410 1.200890 -0.311210
						CHANNELS 3 Zrotation Yrotation Xrotation
						JOINT LeftForeArm
						{
							OFFSET 4.983000 -0.000000 -0.000000
							CHANNELS 3 Zrotation Yrotation Xrotation
							JOINT LeftHand
							{
								OFFSET 3.483560 -0.000000 -0.000000
								CHANNELS 3 Zrotation Yrotation Xrotation
								JOINT LeftFingerBase
								{
									OFFSET 0.000000 0.000000 0.000000
									CHANNELS 3 Zrotation Yrotation Xrotation
									JOINT LeftHandIndex1
									{
										OFFSET 0.715260 -0.000000 -0.000000
										CHANNELS 3 Zrotation Yrotation Xrotation
										End Site
										{
											OFFSET 0.000000 0.000000 0.000000
										}
									}
								}
								JOINT LThumb
								{
									OFFSET 0.000000 0.000000 0.000000
									CHANNELS 3 Zrotation Yrotation Xrotation
									End Site
									{
										OFFSET 0.000000 0.000000 0.000000
									}
								}
							}
						}
					}
				}
				JOINT RightShoulder
				{
					OFFSET 0.000000 0.000000 0.000000
					CHANNELS 3 Zrotation Yrotation Xrotation
					JOINT RightArm
					{
						OFFSET -3.136600 1.374050 -0.404650
						CHANNELS 3 Zrotation Yrotation Xrotation
						JOINT RightForeArm
						{
							OFFSET -5.241900 -0.000000 -0.000000
							CHANNELS 3 Zrotation Yrotation Xrotation
							JOINT RightHand
							{
								OFFSET -3.444170 -0.000000 -0.000000
								CHANNELS 3 Zrotation Yrotation Xrotation
								JOINT RightFingerBase
								{
									OFFSET 0.000000 0.000000 0.000000
									CHANNELS 3 Zrotation Yrotation Xrotation
									JOINT RightHandIndex1
									{
										OFFSET -0.622530 -0.000000 -0.000000
										CHANNELS 3 Zrotation Yrotation Xrotation
										End Site
										{
											OFFSET 0.000000 0.000000 0.000000
										}
									}
								}
								JOINT RThumb
								{
									OFFSET 0.000000 0.000000 0.000000
									CHANNELS 3 Zrotation Yrotation Xrotation
									End Site
									{
										OFFSET 0.000000 0.000000 0.000000
									}
								}
							}
						}
					}
				}
			}
		}
	}
}
MOTION
Frames: 12
Frame Time: 0.008333
-0.362374 16.594437 -1.778099 -174.404490 50.021827 -157.301462 -13.989696 1.941908 -0.469327 -5.195175 -0.452840 -18.588279 0.975140 3.357554 59.830226 2.628628 16.959684 -1.071208 1.754900 -0.000000 -24.752500 7.193785 -0.130858 -0.479948 7.587244 -3.988942 -39.137103 2.081224 -1.867724 29.655139 -1.553433 -7.431397 -0.476607 -1.656900 0.000000 -58.565600 9.669035 -2.492132 1.816919 0.997609 -3.091195 -2.421908 -7.504999 -2.979155 0.746851 7.093145 -6.696858 -5.340968 -5.415913 -0.418959 0.491195 0.000000 0.000000 0.000000 2.079998 6.890097 -0.223034 -58.121523 -18.849774 11.569042 -178.566830 -75.429937 -179.960738 -4.378210 1.492324 -0.038085 0.032040 0.479603 0.000000 0.000000 0.000000 0.000000 0.000000 0.000000 0.000000 19.239191 -6.058530 1.866896 75.477706 -13.697609 -8.397736 4.025978 16.027808 0.010375 4.561748 7.106100 0.281465 0.057902 -0.034017 -0.000000 0.000000 0.000000 0.000000 0.000000 0.000000 0.000000 
-0.227396 16.603088 -1.824991 -174.488297 48.806848 -157.352490 -14.065438 1.779500 -0.581663 -5.120959 -0.003651 -20.317482 1.097776 3.494016 62.093617 2.897887 18.763658 -1.797282 1.785900 -0.000000 -21.351000 7.168250 -0.158380 -0.501625 7.580339 -3.853612 -38.457514 2.023164 -1.832675 30.128239 -1.775818 -8.302427 -1.802151 -1.597000 0.000000 -59.054400 9.664532 -2.430614 1.993587 0.986358 -3.018510 -2.430703 -7.533395 -2.917215 0.589739 7.393391 -6.159233 -5.094343 -5.464477 -0.422408 0.552844 0.000000 0.000000 0.000000 1.998803 6.561303 -0.188169 -59.254251 -18.180114 11.928548 -178.678119 -76.614010 -179.963207 -4.156845 1.608126 -0.040469 0.023423 0.470310 0.000000 0.000000 0.000000 0.000000 0.000000 0.000000 0.000000 19.719991 -5.562213 1.890583 74.950183 -12.782260 -8.097349 3.980559 15.687252 0.010407 4.094038 7.168518 0.254570 0.058200 -0.036825 -0.000000 0.000000 0.000000 0.000000 0.000000 0.000000 0.000000 
-0.093451 16.617395 -1.871983 -174.695956 47.605851 -157.477261 -14.100111 1.622962 -0.678983 -5.210137 0.341274 -22.034458 1.200502 3.616703 64.100427 3.108595 20.133270 -2.540928 1.726699 0.000000 -18.964500 7.174960 -0.176365 -0.489679 7.388329 -3.631429 -37.666253 1.955723 -1.780432 30.362525 -1.968199 -9.049556 -2.870522 -1.524200 0.000000 -59.598600 9.559564 -2.373906 2.134549 0.957366 -2.946441 -2.442543 -7.559813 -2.856261 0.444034 7.684285 -5.625231 -4.850135 -5.495513 -0.424546 0.614310 0.000000 0.000000 0.000000 1.879974 6.242715 -0.146056 -60.338168 -17.469208 12.367423 -178.815500 -78.042434 -179.966182 -3.893371 1.744274 -0.042759 0.014111 0.458366 0.000000 0.000000 0.000000 0.000000 0.000000 0.000000 0.000000 20.142782 -5.067027 1.909830 74.434838 -11.785556 -8.012606 3.929542 15.304335 0.010439 3.527422 7.208669 0.220075 0.059290 -0.040205 -0.000000 0.000000 0.000000 0.000000 0.000000 0.000000 0.000000 
0.039527 16.636737 -1.919897 -175.017190 46.426222 -157.670428 -14.095728 1.477893 -0.761539 -5.462363 0.596497 -23.727704 1.281958 3.723782 65.839080 3.252997 21.029261 -3.287089 1.587500 -0.000000 -17.387500 7.215972 -0.187140 -0.453628 7.025616 -3.365157 -36.780477 1.878415 -1.718320 30.387365 -2.117742 -9.644863 -3.608718 -1.465000 0.000000 -60.259600 9.363051 -2.321929 2.243499 0.912194 -2.875468 -2.454718 -7.583597 -2.796389 0.318573 7.955168 -5.100723 -4.618125 -5.507995 -0.425285 0.672789 0.000000 0.000000 0.000000 1.708373 5.974771 -0.094325 -61.349415 -16.772509 12.886909 -178.975575 -79.726608 -179.969613 -3.587563 1.899704 -0.044352 0.003824 0.444003 0.000000 0.000000 0.000000 0.000000 0.000000 0.000000 0.000000 20.494144 -4.574597 1.919630 73.931460 -10.722787 -8.121614 3.873950 14.906989 0.010448 2.877755 7.234950 0.179480 0.061127 -0.044059 -0.000000 0.000000 0.000000 0.000000 0.000000 0.000000 0.000000 
0.171186 16.660395 -1.970059 -175.416492 45.271046 -157.903704 -14.059812 1.346685 -0.827442 -5.851819 0.778835 -25.396382 1.341185 3.814709 67.302403 3.328019 21.440849 -4.010787 1.390000 -0.000000 -16.491100 7.285190 -0.196440 -0.402185 6.533672 -3.088915 -35.818168 1.795520 -1.650945 30.229330 -2.217259 -10.070685 -4.005576 -1.435600 0.000000 -60.886100 9.102297 -2.271654 2.320380 0.856524 -2.804186 -2.468008 -7.600108 -2.736506 0.212559 8.189614 -4.603818 -4.401591 -5.501332 -0.424684 0.727607 0.000000 0.000000 0.000000 1.481085 5.736144 -0.035376 -62.285735 -16.061413 13.445414 -179.155081 -81.639392 -179.973370 -3.246757 2.071165 -0.045158 -0.006772 0.427473 0.000000 0.000000 0.000000 0.000000 0.000000 0.000000 0.000000 20.748945 -4.102012 1.922242 73.438840 -9.597345 -8.411768 3.816877 14.507394 0.010407 2.178407 7.236770 0.134985 0.063676 -0.048282 -0.000000 0.000000 0.000000 0.000000 0.000000 0.000000 0.000000 
0.301116 16.687824 -2.023324 -175.869456 44.143508 -158.162503 -13.997570 1.230595 -0.876241 -6.358907 0.901556 -27.029948 1.376755 3.888924 68.479313 3.335940 21.392913 -4.686760 1.162100 -0.000001 -16.143701 7.377635 -0.208121 -0.346672 5.949839 -2.845107 -34.792076 1.711769 -1.582153 29.909479 -2.263626 -10.316975 -4.070750 -1.443300 -0.000000 -61.585100 8.796703 -2.221048 2.371408 0.793409 -2.731485 -2.479664 -7.610373 -2.675058 0.133005 8.384191 -4.132062 -4.208470 -5.476728 -0.422786 0.776353 0.000000 0.000000 0.000000 1.186261 5.572024 0.033863 -63.136692 -15.405002 14.054849 -179.350700 -83.797799 -179.977358 -2.874202 2.253787 -0.044574 -0.018035 0.409204 0.000000 0.000000 0.000000 0.000000 0.000000 0.000000 0.000000 20.908288 -3.642071 1.912753 72.948374 -8.432962 -8.844918 3.759999 14.147156 0.010312 1.456837 7.228721 0.088790 0.066802 -0.052777 -0.000000 0.000000 0.000000 0.000000 0.000000 0.000000 0.000000 
0.428873 16.718524 -2.080406 -176.346864 43.043913 -158.425752 -13.915725 1.128593 -0.905951 -6.952158 0.974929 -28.624936 1.388218 3.946439 69.364182 3.283223 20.936806 -5.284286 0.934100 -0.000000 -16.304200 7.484643 -0.226317 -0.295890 5.320950 -2.664543 -33.717062 1.634111 -1.513618 29.449133 -2.259629 -10.382728 -3.866821 -1.480100 -0.000000 -62.241800 8.471369 -2.166635 2.399111 0.727775 -2.655187 -2.490580 -7.610979 -2.610143 0.076152 8.531943 -3.705301 -4.040459 -5.435711 -0.419778 0.818756 0.000000 0.000000 0.000000 0.830396 5.449089 0.109607 -63.911337 -14.768937 14.671320 -179.559154 -86.169916 -179.981409 -2.480882 2.439955 -0.042407 -0.029146 0.389580 0.000000 0.000000 0.000000 0.000000 0.000000 0.000000 0.000000 20.965626 -3.216151 1.894701 72.448677 -7.228223 -9.367281 3.706399 13.837652 0.010163 0.747157 7.207986 0.043295 0.070411 -0.057462 -0.000000 0.000000 0.000000 0.000000 0.000000 0.000000 0.000000 
0.553901 16.752114 -2.141830 -176.820622 41.972353 -158.676365 -13.820374 1.038306 -0.916357 -7.600807 1.009315 -30.174689 1.375507 3.987752 69.953254 3.180365 20.148560 -5.783232 0.729001 0.000000 -16.918099 7.597458 -0.253841 -0.257788 4.690078 -2.570482 -32.602432 1.568590 -1.445537 28.861610 -2.212358 -10.282928 -3.461727 -1.533601 0.000000 -62.917600 8.147731 -2.105537 2.408964 0.662971 -2.573423 -2.499330 -7.603724 -2.539579 0.044219 8.635867 -3.315766 -3.900955 -5.381156 -0.415817 0.853683 0.000000 0.000000 0.000000 0.410297 5.396129 0.193935 -64.610029 -14.205429 15.302984 -179.778180 -88.764373 -179.985425 -2.071291 2.620492 -0.038353 -0.040300 0.369124 0.000000 0.000000 0.000000 0.000000 0.000000 0.000000 0.000000 20.933577 -2.813389 1.865790 71.927429 -6.008416 -9.938076 3.658203 13.615955 0.009979 0.081766 7.185539 0.000800 0.074307 -0.062260 -0.000000 0.000000 0.000000 0.000000 0.000000 0.000000 0.000000 
0.675812 16.788228 -2.207806 -177.267317 40.927278 -158.899527 -13.716670 0.956468 -0.907434 -8.275006 1.012563 -31.675679 1.339459 4.013515 70.249592 3.041229 19.122796 -6.177452 0.559500 0.000000 -17.911000 7.707648 -0.292432 -0.237383 4.095679 -2.575056 -31.456991 1.520507 -1.376961 28.159739 -2.131463 -10.040848 -2.937110 -1.587500 -0.000000 -63.591600 7.843297 -2.035026 2.404924 0.602000 -2.484284 -2.506238 -7.588575 -2.461500 0.033795 8.699201 -2.968384 -3.790065 -5.316070 -0.411127 0.881122 0.000000 0.000000 0.000000 -0.065715 5.398720 0.285092 -65.240893 -13.710322 15.927715 -0.005378 -88.436667 0.010713 -1.652242 2.784350 -0.032416 -0.051109 0.348283 0.000000 0.000000 0.000000 0.000000 0.000000 0.000000 0.000000 20.823958 -2.439766 1.828312 71.371504 -4.781396 -10.502628 3.617607 13.496899 0.009780 -0.510901 7.163948 -0.036894 0.078327 -0.067103 -0.000000 0.000000 0.000000 0.000000 0.000000 0.000000 0.000000 
0.794342 16.826593 -2.278185 -177.669959 39.907364 -159.086692 -13.608298 0.879452 -0.880596 -8.948929 0.992296 -33.124955 1.281376 4.024615 70.261866 2.881686 17.963836 -6.480045 0.426900 -0.000000 -19.165000 7.808290 -0.342507 -0.237467 3.567665 -2.680537 -30.287238 1.493205 -1.306396 27.354556 -2.027483 -9.687957 -2.366326 -1.628800 0.000000 -64.267399 7.569668 -1.953131 2.391582 0.546642 -2.386267 -2.511409 -7.566565 -2.374373 0.041518 8.728633 -2.662019 -3.706837 -5.243888 -0.405941 0.901284 0.000000 0.000000 0.000000 -0.587279 5.448100 0.381946 -65.810647 -13.287410 16.530530 -0.238393 -85.447930 0.007093 -1.228309 2.920343 -0.024795 -0.061342 0.327475 0.000000 0.000000 0.000000 0.000000 0.000000 0.000000 0.000000 20.654829 -2.095183 1.784264 70.769141 -3.557777 -11.013690 3.586057 13.492060 0.009600 -1.008723 7.146374 -0.068488 0.082292 -0.071926 -0.000000 0.000000 0.000000 0.000000 0.000000 0.000000 0.000000 
0.909345 16.866896 -2.352645 -178.015919 38.910993 -159.233052 -13.497520 0.803968 -0.838434 -9.603262 0.955670 -34.520115 1.202878 4.022071 70.004823 2.717811 16.774861 -6.722518 0.324000 -0.000001 -20.516200 7.894414 -0.403648 -0.258725 3.126257 -2.881045 -29.097591 1.488080 -1.232268 26.455557 -1.910082 -9.258519 -1.804738 -1.650300 -0.000000 -64.957700 7.332172 -1.858825 2.373933 0.497522 -2.278435 -2.514977 -7.539113 -2.277261 0.063367 8.732511 -2.392941 -3.649200 -5.167946 -0.400485 0.914677 0.000000 0.000000 0.000000 -1.141424 5.532824 0.483436 -66.325471 -12.935364 17.096450 -0.474607 -82.286582 0.003786 -0.802693 3.018306 -0.015690 -0.070796 0.307031 0.000000 0.000000 0.000000 0.000000 0.000000 0.000000 0.000000 20.445808 -1.777395 1.736297 70.110884 -2.346113 -11.431442 3.564277 13.604981 0.009465 -1.396668 7.133982 -0.093081 0.086038 -0.076659 -0.000000 0.000000 0.000000 0.000000 0.000000 0.000000 0.000000 
1.021069 16.908808 -2.430580 -178.303595 37.937891 -159.341174 -13.384563 0.727783 -0.784220 -10.225630 0.908739 -35.859279 1.105508 4.006934 69.497925 2.563992 15.647203 -6.948261 0.239500 0.000000 -21.780400 7.963973 -0.474608 -0.300076 2.780528 -3.165206 -27.890681 1.504160 -1.153437 25.472257 -1.786996 -8.784661 -1.284422 -1.651200 -0.000000 -65.676801 7.129004 -1.752302 2.356644 0.454066 -2.160671 -2.517101 -7.507330 -2.170063 0.095250 8.719558 -2.155116 -3.613993 -5.091310 -0.394967 0.922100 0.000000 0.000000 0.000000 -1.712638 5.640002 0.588638 -66.789564 -12.648770 17.611334 -0.711011 -78.972128 0.000837 -0.377339 3.070954 -0.005600 -0.079311 0.287168 0.000000 0.000000 0.000000 0.000000 0.000000 0.000000 0.000000 20.216398 -1.482370 1.687261 69.391069 -1.153043 -11.726353 3.552031 13.832249 0.009398 -1.668380 7.126739 -0.110372 0.089421 -0.081234 -0.000000 0.000000 0.000000 0.000000 0.000000 0.000000 0.000000 
